<svg width="28" height="14" viewBox="0 0 28 14" fill="none" xmlns="http://www.w3.org/2000/svg">
<path d="M8.94141 6.99219C8.93359 7.05469 8.92969 7.09766 8.92969 7.12109C8.92969 7.13672 8.92969 7.14844 8.92969 7.15625V7.55469C8.90625 7.625 8.88672 7.68359 8.87109 7.73047C8.85547 7.76953 8.83984 7.80469 8.82422 7.83594C8.81641 7.85938 8.80859 7.88281 8.80078 7.90625C8.80078 7.92188 8.79688 7.94922 8.78906 7.98828C8.77344 8.02734 8.76172 8.05859 8.75391 8.08203C8.74609 8.09766 8.73828 8.11328 8.73047 8.12891C8.73047 8.12891 8.72266 8.15234 8.70703 8.19922C8.69922 8.22266 8.69531 8.24219 8.69531 8.25781C8.67969 8.27344 8.66797 8.28906 8.66016 8.30469C8.65234 8.32031 8.64453 8.33594 8.63672 8.35156C8.62891 8.35938 8.625 8.36719 8.625 8.375C8.60156 8.40625 8.57812 8.43359 8.55469 8.45703C8.53906 8.48047 8.52344 8.50391 8.50781 8.52734C8.49219 8.56641 8.47656 8.60156 8.46094 8.63281C8.44531 8.66406 8.42969 8.69141 8.41406 8.71484C8.39844 8.74609 8.38672 8.76562 8.37891 8.77344C8.37891 8.78125 8.37109 8.80078 8.35547 8.83203C8.32422 8.86328 8.29688 8.88672 8.27344 8.90234C8.25781 8.91016 8.24219 8.92188 8.22656 8.9375C8.19531 8.97656 8.17188 9.01562 8.15625 9.05469C8.14844 9.08594 8.14062 9.11328 8.13281 9.13672C8.125 9.16797 8.11719 9.19141 8.10938 9.20703C8.07812 9.23047 8.04688 9.25781 8.01562 9.28906C7.99219 9.3125 7.96875 9.33594 7.94531 9.35938C7.92969 9.375 7.91797 9.38281 7.91016 9.38281C7.87109 9.4375 7.83594 9.47266 7.80469 9.48828C7.76562 9.57422 7.73828 9.62891 7.72266 9.65234C7.71484 9.67578 7.70312 9.69141 7.6875 9.69922C7.64844 9.76172 7.62109 9.80078 7.60547 9.81641C7.59766 9.82422 7.58594 9.82812 7.57031 9.82812C7.53125 9.88281 7.49609 9.92969 7.46484 9.96875C7.44141 10.0078 7.40625 10.0352 7.35938 10.0508C7.29688 10.1133 7.25391 10.1562 7.23047 10.1797C7.21484 10.1953 7.20312 10.2109 7.19531 10.2266L7.07812 10.2969C6.97656 10.3359 6.91797 10.3555 6.90234 10.3555C6.83984 10.3945 6.80078 10.4219 6.78516 10.4375C6.76953 10.4453 6.75781 10.4492 6.75 10.4492L6.53906 10.5547C6.44531 10.5938 6.37109 10.6211 6.31641 10.6367C6.20703 10.6758 6.13672 10.6992 6.10547 10.707C6.08203 10.7148 6.0625 10.7188 6.04688 10.7188C5.97656 10.7422 5.92578 10.7578 5.89453 10.7656C5.86328 10.7734 5.83594 10.7812 5.8125 10.7891C5.78906 10.7969 5.75781 10.8047 5.71875 10.8125C5.67969 10.8125 5.60938 10.8281 5.50781 10.8594H5.30859C5.23047 10.875 5.17188 10.875 5.13281 10.8594C5.07031 10.8672 5.00781 10.8633 4.94531 10.8477C4.89844 10.8477 4.86328 10.8516 4.83984 10.8594C4.81641 10.8594 4.79297 10.8594 4.76953 10.8594C4.67578 10.8516 4.61328 10.8516 4.58203 10.8594C4.55859 10.8594 4.52734 10.8594 4.48828 10.8594C4.37891 10.8438 4.30469 10.8359 4.26562 10.8359C4.23438 10.8359 4.20312 10.8359 4.17188 10.8359C4.07812 10.8516 3.99609 10.8438 3.92578 10.8125C3.88672 10.7969 3.85156 10.7891 3.82031 10.7891C3.79688 10.7891 3.77344 10.7891 3.75 10.7891C3.625 10.7891 3.54297 10.7852 3.50391 10.7773C3.46484 10.7539 3.42969 10.7422 3.39844 10.7422C3.375 10.7344 3.35547 10.7305 3.33984 10.7305C3.28516 10.7227 3.24609 10.7188 3.22266 10.7188C3.19922 10.7109 3.16797 10.6992 3.12891 10.6836C3.05078 10.668 3.00391 10.6523 2.98828 10.6367C2.97266 10.6211 2.96484 10.6094 2.96484 10.6016C2.87891 10.5625 2.81641 10.5391 2.77734 10.5312C2.73828 10.5234 2.70703 10.5156 2.68359 10.5078C2.62891 10.5 2.57422 10.4727 2.51953 10.4258C2.48047 10.418 2.44922 10.4141 2.42578 10.4141C2.41016 10.4141 2.39453 10.4102 2.37891 10.4023C2.31641 10.4023 2.26172 10.3945 2.21484 10.3789C2.16797 10.3555 2.125 10.3281 2.08594 10.2969C1.98438 10.2812 1.91016 10.25 1.86328 10.2031C1.82422 10.1719 1.79688 10.1523 1.78125 10.1445C1.76562 10.1367 1.75391 10.1289 1.74609 10.1211C1.63672 10.0195 1.55859 9.94531 1.51172 9.89844C1.46484 9.85156 1.42578 9.80859 1.39453 9.76953C1.35547 9.73047 1.32031 9.69141 1.28906 9.65234C1.25781 9.61328 1.22656 9.56641 1.19531 9.51172C1.17188 9.45703 1.14453 9.40625 1.11328 9.35938C1.08203 9.3125 1.05078 9.26172 1.01953 9.20703L0.9375 8.99609C0.914062 8.97266 0.898438 8.95312 0.890625 8.9375C0.882812 8.92188 0.875 8.91016 0.867188 8.90234C0.859375 8.89453 0.855469 8.88672 0.855469 8.87891C0.824219 8.82422 0.800781 8.78906 0.785156 8.77344C0.769531 8.75 0.75 8.72656 0.726562 8.70312C0.71875 8.625 0.707031 8.55859 0.691406 8.50391C0.675781 8.48047 0.667969 8.45703 0.667969 8.43359C0.667969 8.40234 0.664062 8.37891 0.65625 8.36328C0.640625 8.33203 0.628906 8.30469 0.621094 8.28125C0.613281 8.25781 0.605469 8.23438 0.597656 8.21094C0.582031 8.17969 0.566406 8.13281 0.550781 8.07031C0.511719 7.96094 0.488281 7.87891 0.480469 7.82422C0.472656 7.76953 0.472656 7.72266 0.480469 7.68359C0.472656 7.62109 0.464844 7.57812 0.457031 7.55469C0.449219 7.52344 0.441406 7.49219 0.433594 7.46094C0.417969 7.41406 0.40625 7.38281 0.398438 7.36719C0.398438 7.35156 0.394531 7.33203 0.386719 7.30859C0.386719 7.26172 0.386719 7.23047 0.386719 7.21484C0.394531 7.19922 0.398438 7.18359 0.398438 7.16797C0.390625 7.15234 0.382812 7.13672 0.375 7.12109C0.367188 7.10547 0.355469 7.08203 0.339844 7.05078C0.339844 6.98828 0.339844 6.93359 0.339844 6.88672C0.339844 6.83984 0.351562 6.78906 0.375 6.73438C0.367188 6.6875 0.363281 6.65625 0.363281 6.64062C0.363281 6.61719 0.363281 6.59766 0.363281 6.58203C0.371094 6.53516 0.375 6.50391 0.375 6.48828C0.375 6.47266 0.375 6.45703 0.375 6.44141C0.398438 6.37891 0.414062 6.33594 0.421875 6.3125C0.429688 6.28906 0.433594 6.26953 0.433594 6.25391V6.07812C0.472656 6.02344 0.496094 5.98438 0.503906 5.96094C0.511719 5.9375 0.515625 5.90625 0.515625 5.86719C0.53125 5.75 0.539062 5.67578 0.539062 5.64453C0.546875 5.61328 0.554688 5.58984 0.5625 5.57422C0.59375 5.51172 0.609375 5.47266 0.609375 5.45703C0.617188 5.43359 0.628906 5.39062 0.644531 5.32812C0.683594 5.27344 0.707031 5.23047 0.714844 5.19922C0.722656 5.16797 0.730469 5.14062 0.738281 5.11719C0.753906 5.08594 0.761719 5.0625 0.761719 5.04688C0.761719 5.02344 0.769531 4.98828 0.785156 4.94141L0.890625 4.84766C0.914062 4.75391 0.953125 4.6875 1.00781 4.64844C1.04688 4.54688 1.07812 4.48438 1.10156 4.46094C1.11719 4.42188 1.12891 4.39062 1.13672 4.36719C1.15234 4.33594 1.17969 4.3125 1.21875 4.29688C1.25 4.25 1.27734 4.19531 1.30078 4.13281C1.35547 4.09375 1.39453 4.07031 1.41797 4.0625C1.44141 4.04688 1.46094 4.03125 1.47656 4.01562C1.52344 3.89844 1.57031 3.82422 1.61719 3.79297C1.70312 3.68359 1.76172 3.61328 1.79297 3.58203C1.82422 3.54297 1.84766 3.51563 1.86328 3.5L2.07422 3.28906C2.10547 3.27344 2.13672 3.25391 2.16797 3.23047C2.19141 3.21484 2.21484 3.20312 2.23828 3.19531C2.26953 3.17969 2.29297 3.17188 2.30859 3.17188C2.32422 3.15625 2.34375 3.14453 2.36719 3.13672C2.39062 3.12109 2.41016 3.10547 2.42578 3.08984C2.48047 3.05078 2.54688 3.01953 2.625 2.99609C2.66406 2.95703 2.71484 2.92969 2.77734 2.91406C2.81641 2.89062 2.83984 2.875 2.84766 2.86719C2.86328 2.85156 2.89062 2.83203 2.92969 2.80859C2.96875 2.80859 3.01172 2.79688 3.05859 2.77344C3.09766 2.76563 3.12891 2.76563 3.15234 2.77344C3.17578 2.77344 3.19531 2.77344 3.21094 2.77344C3.26562 2.74219 3.30859 2.71875 3.33984 2.70312C3.37109 2.67969 3.39453 2.66016 3.41016 2.64453C3.43359 2.62891 3.44922 2.61719 3.45703 2.60938L3.67969 2.5625L3.92578 2.49219C3.94141 2.5 3.96484 2.50391 3.99609 2.50391C4.01172 2.50391 4.03125 2.50781 4.05469 2.51562C4.08594 2.51562 4.10938 2.51562 4.125 2.51562C4.16406 2.50781 4.20312 2.50391 4.24219 2.50391C4.28125 2.49609 4.32031 2.49609 4.35938 2.50391C4.41406 2.49609 4.44922 2.48828 4.46484 2.48047C4.48828 2.47266 4.50781 2.46484 4.52344 2.45703C4.57031 2.43359 4.63281 2.42969 4.71094 2.44531C4.79688 2.42969 4.85938 2.42188 4.89844 2.42188C4.9375 2.42188 4.97656 2.42578 5.01562 2.43359H5.15625C5.21875 2.44141 5.26562 2.45312 5.29688 2.46875C5.32812 2.47656 5.35156 2.48828 5.36719 2.50391C5.47656 2.49609 5.54688 2.49609 5.57812 2.50391C5.61719 2.50391 5.64453 2.50781 5.66016 2.51562C5.71484 2.52344 5.75391 2.52734 5.77734 2.52734C5.80859 2.52734 5.84375 2.53516 5.88281 2.55078C6 2.58984 6.08984 2.62109 6.15234 2.64453C6.22266 2.66797 6.27734 2.69531 6.31641 2.72656C6.33203 2.72656 6.34766 2.72656 6.36328 2.72656C6.38672 2.71875 6.41406 2.72266 6.44531 2.73828L6.59766 2.80859C6.65234 2.83203 6.6875 2.84766 6.70312 2.85547C6.72656 2.85547 6.75 2.85547 6.77344 2.85547C6.8125 2.89453 6.83594 2.92187 6.84375 2.9375C6.85156 2.94531 6.85938 2.94922 6.86719 2.94922C6.88281 2.95703 6.89844 2.96484 6.91406 2.97266C6.9375 2.98047 6.96875 2.99609 7.00781 3.01953C7.03125 3.07422 7.04688 3.10937 7.05469 3.125C7.07031 3.13281 7.08203 3.14063 7.08984 3.14844C7.15234 3.15625 7.20703 3.17969 7.25391 3.21875C7.30078 3.25781 7.33594 3.29687 7.35938 3.33594C7.375 3.34375 7.39062 3.35156 7.40625 3.35938C7.42188 3.35938 7.46094 3.36719 7.52344 3.38281C7.5625 3.44531 7.59375 3.48828 7.61719 3.51172C7.64062 3.53516 7.66797 3.5625 7.69922 3.59375C7.71484 3.63281 7.72656 3.66406 7.73438 3.6875C7.75 3.70313 7.79297 3.71875 7.86328 3.73438C7.88672 3.82812 7.89844 3.87109 7.89844 3.86328C7.92969 3.90234 7.95703 3.94141 7.98047 3.98047C8.01172 4.01953 8.04297 4.04297 8.07422 4.05078C8.09766 4.12109 8.11719 4.16797 8.13281 4.19141C8.14844 4.20703 8.17969 4.23047 8.22656 4.26172C8.22656 4.33203 8.22656 4.375 8.22656 4.39062C8.22656 4.40625 8.23047 4.41797 8.23828 4.42578C8.26953 4.45703 8.29297 4.48438 8.30859 4.50781C8.32422 4.52344 8.33984 4.53906 8.35547 4.55469C8.37109 4.59375 8.38281 4.625 8.39062 4.64844C8.39844 4.66406 8.40625 4.67969 8.41406 4.69531C8.42969 4.72656 8.44531 4.75781 8.46094 4.78906C8.48438 4.8125 8.5 4.84375 8.50781 4.88281C8.54688 4.96094 8.56641 5.01953 8.56641 5.05859C8.59766 5.12891 8.61719 5.17969 8.625 5.21094C8.64062 5.24219 8.65625 5.26953 8.67188 5.29297C8.6875 5.33203 8.69531 5.36719 8.69531 5.39844C8.69531 5.42969 8.69531 5.45703 8.69531 5.48047C8.71875 5.56641 8.73047 5.62891 8.73047 5.66797C8.73047 5.73047 8.73438 5.78125 8.74219 5.82031C8.75 5.85938 8.75781 5.89062 8.76562 5.91406C8.77344 5.94531 8.78516 5.96875 8.80078 5.98438C8.80078 6.03125 8.80469 6.07031 8.8125 6.10156V6.18359C8.8125 6.19922 8.81641 6.21484 8.82422 6.23047C8.85547 6.41016 8.87109 6.53125 8.87109 6.59375C8.89453 6.64062 8.90625 6.68359 8.90625 6.72266C8.91406 6.77734 8.91797 6.8125 8.91797 6.82812C8.91797 6.83594 8.91797 6.84375 8.91797 6.85156C8.93359 6.89062 8.94141 6.92188 8.94141 6.94531C8.94141 6.96094 8.94141 6.97656 8.94141 6.99219ZM7.93359 6.83984L7.875 6.5C7.86719 6.46875 7.86328 6.41406 7.86328 6.33594C7.84766 6.29688 7.83594 6.26562 7.82812 6.24219C7.82812 6.21094 7.82422 6.1875 7.81641 6.17188C7.79297 6.10156 7.78125 6.04688 7.78125 6.00781C7.78906 5.94531 7.78906 5.90234 7.78125 5.87891C7.77344 5.84766 7.76562 5.81641 7.75781 5.78516C7.74219 5.70703 7.73438 5.64453 7.73438 5.59766C7.71875 5.56641 7.70703 5.54297 7.69922 5.52734C7.69141 5.50391 7.68359 5.48438 7.67578 5.46875C7.65234 5.38281 7.63281 5.32031 7.61719 5.28125C7.60938 5.24219 7.60156 5.21094 7.59375 5.1875C7.57031 5.14844 7.55469 5.11719 7.54688 5.09375C7.53906 5.07031 7.53125 5.05078 7.52344 5.03516L7.51172 5.01172C7.48047 4.97266 7.45703 4.94531 7.44141 4.92969C7.42578 4.90625 7.41406 4.875 7.40625 4.83594C7.38281 4.82031 7.36328 4.80469 7.34766 4.78906C7.33984 4.76562 7.32812 4.74609 7.3125 4.73047C7.29688 4.67578 7.28516 4.64453 7.27734 4.63672C7.26953 4.62109 7.26172 4.60547 7.25391 4.58984C7.21484 4.55078 7.19141 4.52344 7.18359 4.50781C7.17578 4.49219 7.16406 4.47656 7.14844 4.46094C7.0625 4.35156 7.01562 4.28516 7.00781 4.26172C6.94531 4.21484 6.89844 4.17188 6.86719 4.13281C6.83594 4.09375 6.80469 4.05469 6.77344 4.01562C6.72656 3.97656 6.68359 3.94531 6.64453 3.92188C6.61328 3.89063 6.58203 3.86719 6.55078 3.85156C6.52734 3.83594 6.5 3.82422 6.46875 3.81641C6.44531 3.80078 6.39844 3.78516 6.32812 3.76953C6.28906 3.73047 6.25781 3.71094 6.23438 3.71094C6.21094 3.71094 6.17969 3.71875 6.14062 3.73438C6.09375 3.69531 6.05859 3.67187 6.03516 3.66406C6.01953 3.64844 5.99219 3.64062 5.95312 3.64062C5.85938 3.60156 5.78516 3.55469 5.73047 3.5C5.70703 3.49219 5.67969 3.48047 5.64844 3.46484C5.63281 3.45703 5.61719 3.45312 5.60156 3.45312L5.42578 3.44141C5.36328 3.42578 5.3125 3.41797 5.27344 3.41797C5.23438 3.41797 5.19531 3.41406 5.15625 3.40625C5.08594 3.40625 5.02344 3.39062 4.96875 3.35938H4.74609C4.70703 3.38281 4.67188 3.39844 4.64062 3.40625C4.61719 3.41406 4.58984 3.42188 4.55859 3.42969C4.37109 3.42188 4.25391 3.42578 4.20703 3.44141C4.13672 3.47266 4.07422 3.49219 4.01953 3.5L3.84375 3.53516C3.78125 3.55078 3.74219 3.5625 3.72656 3.57031C3.71875 3.57812 3.70703 3.58984 3.69141 3.60547C3.61328 3.62891 3.5625 3.64453 3.53906 3.65234C3.47656 3.66797 3.4375 3.67969 3.42188 3.6875C3.41406 3.6875 3.40234 3.69141 3.38672 3.69922C3.31641 3.76172 3.25391 3.80469 3.19922 3.82812C3.14453 3.85156 3.09766 3.87109 3.05859 3.88672C3.00391 3.93359 2.96875 3.96094 2.95312 3.96875C2.9375 3.97656 2.92578 3.98438 2.91797 3.99219C2.83984 4.03906 2.78125 4.07812 2.74219 4.10938C2.70312 4.14062 2.66797 4.17188 2.63672 4.20312C2.62109 4.22656 2.60547 4.25391 2.58984 4.28516C2.58203 4.30859 2.5625 4.32812 2.53125 4.34375C2.49219 4.40625 2.46875 4.44531 2.46094 4.46094C2.45312 4.46875 2.44922 4.47656 2.44922 4.48438L2.32031 4.60156C2.24219 4.67969 2.19141 4.72656 2.16797 4.74219C2.12891 4.8125 2.09766 4.86328 2.07422 4.89453C2.05859 4.92578 2.04297 4.94922 2.02734 4.96484C2.00391 5.01172 1.98047 5.05469 1.95703 5.09375C1.93359 5.13281 1.92188 5.16797 1.92188 5.19922C1.86719 5.26172 1.83594 5.30078 1.82812 5.31641C1.82031 5.33203 1.81641 5.37109 1.81641 5.43359C1.76172 5.49609 1.72266 5.54688 1.69922 5.58594C1.68359 5.625 1.66406 5.65625 1.64062 5.67969C1.625 5.71875 1.61719 5.74609 1.61719 5.76172C1.61719 5.76953 1.62109 5.78906 1.62891 5.82031C1.59766 5.875 1.57422 5.91016 1.55859 5.92578C1.55078 5.94141 1.54297 5.95703 1.53516 5.97266C1.54297 6.05078 1.53516 6.12891 1.51172 6.20703C1.49609 6.27734 1.47266 6.34766 1.44141 6.41797C1.44922 6.47266 1.44531 6.53125 1.42969 6.59375C1.42188 6.61719 1.41797 6.64062 1.41797 6.66406C1.42578 6.67969 1.4375 6.71484 1.45312 6.76953C1.41406 6.82422 1.39062 6.85938 1.38281 6.875C1.38281 6.89062 1.38281 6.90625 1.38281 6.92188C1.39844 6.97656 1.41016 7.01953 1.41797 7.05078C1.42578 7.07422 1.4375 7.10156 1.45312 7.13281C1.45312 7.21875 1.45703 7.28516 1.46484 7.33203C1.47266 7.37891 1.47656 7.42578 1.47656 7.47266C1.48438 7.50391 1.48828 7.55078 1.48828 7.61328C1.52734 7.70703 1.54688 7.76562 1.54688 7.78906C1.55469 7.8125 1.5625 7.83203 1.57031 7.84766C1.60156 7.93359 1.61719 7.98438 1.61719 8C1.65625 8.10156 1.67578 8.15234 1.67578 8.15234C1.69141 8.19922 1.70312 8.23438 1.71094 8.25781C1.72656 8.28125 1.73828 8.30078 1.74609 8.31641C1.76172 8.33984 1.76953 8.36328 1.76953 8.38672C1.77734 8.41016 1.78906 8.4375 1.80469 8.46875C1.8125 8.50781 1.82422 8.54297 1.83984 8.57422L1.85156 8.59766L1.99219 8.89062C2.03906 8.9375 2.07031 8.98828 2.08594 9.04297C2.125 9.08203 2.15234 9.11328 2.16797 9.13672C2.19141 9.16016 2.21094 9.18359 2.22656 9.20703C2.29688 9.23828 2.35156 9.29297 2.39062 9.37109C2.42969 9.38672 2.46094 9.39844 2.48438 9.40625C2.51562 9.40625 2.54688 9.41406 2.57812 9.42969C2.64844 9.45312 2.69531 9.46875 2.71875 9.47656C2.74219 9.48438 2.76172 9.48828 2.77734 9.48828C2.88672 9.52734 2.94141 9.54688 2.94141 9.54688C3.02734 9.57812 3.07812 9.59766 3.09375 9.60547C3.10938 9.60547 3.12109 9.60938 3.12891 9.61719C3.21484 9.64844 3.26562 9.67188 3.28125 9.6875C3.3125 9.69531 3.33594 9.70312 3.35156 9.71094C3.375 9.71875 3.39453 9.72656 3.41016 9.73438C3.43359 9.74219 3.45312 9.74609 3.46875 9.74609C3.48438 9.73828 3.51172 9.73047 3.55078 9.72266C3.60547 9.73828 3.64844 9.75391 3.67969 9.76953C3.71094 9.77734 3.73828 9.78516 3.76172 9.79297C3.81641 9.76172 3.85547 9.75391 3.87891 9.76953C3.91016 9.78516 3.93359 9.80078 3.94922 9.81641C4.01172 9.83203 4.05469 9.84375 4.07812 9.85156C4.10156 9.85156 4.12109 9.85156 4.13672 9.85156C4.16797 9.85156 4.19141 9.85156 4.20703 9.85156C4.23047 9.84375 4.25 9.83984 4.26562 9.83984C4.32031 9.84766 4.35547 9.85156 4.37109 9.85156C4.38672 9.85156 4.40234 9.84766 4.41797 9.83984C4.48047 9.85547 4.52734 9.86328 4.55859 9.86328C4.59766 9.86328 4.63281 9.86328 4.66406 9.86328C4.67969 9.86328 4.69922 9.86328 4.72266 9.86328C4.75391 9.86328 4.78125 9.86719 4.80469 9.875C4.84375 9.85938 4.86719 9.85156 4.875 9.85156C4.89062 9.84375 4.90625 9.83203 4.92188 9.81641C4.97656 9.83203 5.00781 9.84375 5.01562 9.85156C5.03125 9.85156 5.04297 9.84766 5.05078 9.83984C5.07422 9.83203 5.10547 9.82812 5.14453 9.82812C5.19141 9.82031 5.23828 9.82812 5.28516 9.85156C5.34766 9.83594 5.39844 9.82422 5.4375 9.81641C5.47656 9.80859 5.51562 9.80078 5.55469 9.79297C5.625 9.77734 5.68359 9.76172 5.73047 9.74609C5.78516 9.73047 5.83203 9.71484 5.87109 9.69922C5.91016 9.68359 5.94922 9.67188 5.98828 9.66406C6.02734 9.64844 6.07422 9.64062 6.12891 9.64062C6.16797 9.61719 6.21484 9.58984 6.26953 9.55859C6.33203 9.51953 6.38281 9.49219 6.42188 9.47656C6.48438 9.42188 6.52734 9.38672 6.55078 9.37109C6.57422 9.34766 6.59766 9.32812 6.62109 9.3125C6.68359 9.27344 6.71875 9.25 6.72656 9.24219C6.74219 9.22656 6.75391 9.21484 6.76172 9.20703C6.80078 9.15234 6.82422 9.11328 6.83203 9.08984C6.84766 9.06641 6.86328 9.03906 6.87891 9.00781C6.95703 8.92969 7.01562 8.86719 7.05469 8.82031C7.09375 8.77344 7.14844 8.70312 7.21875 8.60938C7.26562 8.54688 7.29688 8.50391 7.3125 8.48047C7.33594 8.45703 7.35547 8.4375 7.37109 8.42188C7.41797 8.35938 7.44922 8.32031 7.46484 8.30469C7.48047 8.28125 7.49219 8.26172 7.5 8.24609C7.54688 8.17578 7.57812 8.12891 7.59375 8.10547C7.60938 8.07422 7.625 8.05078 7.64062 8.03516C7.67969 7.97266 7.69922 7.93359 7.69922 7.91797C7.70703 7.90234 7.70703 7.875 7.69922 7.83594C7.72266 7.79688 7.73438 7.76953 7.73438 7.75391C7.74219 7.73047 7.74609 7.69922 7.74609 7.66016L7.875 7.42578C7.88281 7.37109 7.88672 7.33594 7.88672 7.32031C7.88672 7.30469 7.88672 7.27734 7.88672 7.23828C7.91016 7.16797 7.92188 7.11719 7.92188 7.08594C7.92188 7.04688 7.92188 7.01953 7.92188 7.00391C7.92188 6.92578 7.92578 6.87109 7.93359 6.83984Z" fill="#2F0746"/>
<path d="M27.8281 3.21875L27.7812 3.3125C27.7578 3.35938 27.7461 3.39844 27.7461 3.42969C27.7227 3.46094 27.6914 3.49609 27.6523 3.53516C27.6211 3.55078 27.5938 3.5625 27.5703 3.57031C27.5469 3.57812 27.5195 3.58594 27.4883 3.59375C27.4883 3.60156 27.4727 3.61328 27.4414 3.62891C27.4258 3.63672 27.4102 3.64062 27.3945 3.64062C27.3711 3.64844 27.3516 3.65234 27.3359 3.65234C27.2891 3.65234 27.2656 3.65234 27.2656 3.65234C27.1797 3.66797 27.1055 3.67578 27.043 3.67578C26.9883 3.66797 26.9375 3.66406 26.8906 3.66406C26.8281 3.67969 26.7773 3.68359 26.7383 3.67578C26.6758 3.65234 26.625 3.64844 26.5859 3.66406C26.5312 3.67187 26.4922 3.67578 26.4688 3.67578C26.4531 3.67578 26.4375 3.67578 26.4219 3.67578C26.3359 3.69141 26.2812 3.69922 26.2578 3.69922C26.2344 3.69922 26.2148 3.69922 26.1992 3.69922C26.1992 3.76172 26.1953 3.80469 26.1875 3.82812C26.1875 3.90625 26.1797 3.97656 26.1641 4.03906C26.1641 4.10156 26.1641 4.14453 26.1641 4.16797C26.1719 4.18359 26.1758 4.19922 26.1758 4.21484C26.1523 4.30859 26.1367 4.35938 26.1289 4.36719C26.1211 4.4375 26.1172 4.49219 26.1172 4.53125C26.1172 4.5625 26.1094 4.58984 26.0938 4.61328C26.1016 4.66016 26.1016 4.70703 26.0938 4.75391C26.0859 4.79297 26.0781 4.83203 26.0703 4.87109C26.0625 4.91016 26.0547 4.94531 26.0469 4.97656C26.0469 5 26.0547 5.04297 26.0703 5.10547C26.0312 5.17578 26 5.27344 25.9766 5.39844C25.9688 5.42969 25.9648 5.46094 25.9648 5.49219C25.9648 5.51562 25.9609 5.53906 25.9531 5.5625C25.9531 5.71875 25.9492 5.81641 25.9414 5.85547C25.9414 5.90234 25.9375 5.94922 25.9297 5.99609C25.9297 6.03516 25.9297 6.07031 25.9297 6.10156C25.9375 6.14062 25.9414 6.16797 25.9414 6.18359C25.9492 6.19922 25.9531 6.21484 25.9531 6.23047C25.9609 6.26172 25.9648 6.29688 25.9648 6.33594C25.9727 6.36719 25.9688 6.40234 25.9531 6.44141C25.9531 6.52734 25.9492 6.58594 25.9414 6.61719C25.9492 6.75 25.9453 6.84766 25.9297 6.91016C25.9297 6.99609 25.9258 7.04688 25.918 7.0625C25.9336 7.15625 25.9375 7.22656 25.9297 7.27344C25.9297 7.32031 25.9336 7.36328 25.9414 7.40234C25.9414 7.43359 25.9414 7.46484 25.9414 7.49609C25.9492 7.51953 25.9609 7.55469 25.9766 7.60156C25.9609 7.66406 25.9492 7.70703 25.9414 7.73047C25.9414 7.75391 25.9492 7.78125 25.9648 7.8125C25.9414 7.88281 25.9297 7.92969 25.9297 7.95312C25.9453 8.09375 25.9531 8.1875 25.9531 8.23438C25.9531 8.28125 25.9531 8.3125 25.9531 8.32812C25.9609 8.39062 25.9688 8.4375 25.9766 8.46875C25.9844 8.5 25.9883 8.52734 25.9883 8.55078C25.9883 8.62891 25.9844 8.68359 25.9766 8.71484C25.9922 8.78516 26 8.84375 26 8.89062C26.0078 8.9375 26.0039 8.98047 25.9883 9.01953C25.9961 9.08984 26 9.14062 26 9.17188C26 9.20312 25.9961 9.23047 25.9883 9.25391C25.9961 9.33203 25.9961 9.38281 25.9883 9.40625C25.9883 9.42969 25.9883 9.44922 25.9883 9.46484C26.0508 9.44922 26.0938 9.44141 26.1172 9.44141C26.1484 9.43359 26.1758 9.42969 26.1992 9.42969C26.2383 9.4375 26.2656 9.44141 26.2812 9.44141C26.3047 9.43359 26.3242 9.42578 26.3398 9.41797H26.4688C26.5625 9.37891 26.6289 9.35547 26.668 9.34766C26.7148 9.33984 26.7539 9.33984 26.7852 9.34766C26.8789 9.36328 26.9453 9.37891 26.9844 9.39453C27.0312 9.40234 27.0859 9.41016 27.1484 9.41797C27.1797 9.46484 27.1992 9.5 27.207 9.52344C27.2227 9.53906 27.2344 9.55469 27.2422 9.57031C27.3516 9.74219 27.3945 9.88672 27.3711 10.0039C27.3633 10.043 27.3477 10.0781 27.3242 10.1094C27.3008 10.1328 27.2773 10.1523 27.2539 10.168C27.1367 10.2773 27.0508 10.3359 26.9961 10.3438C26.918 10.3672 26.8633 10.3828 26.832 10.3906C26.8086 10.3906 26.7891 10.3906 26.7734 10.3906C26.6953 10.3984 26.6406 10.4023 26.6094 10.4023C26.5859 10.4023 26.5664 10.4023 26.5508 10.4023C26.5117 10.4023 26.4648 10.4062 26.4102 10.4141C26.3633 10.4141 26.3203 10.418 26.2812 10.4258C26.2266 10.457 26.1719 10.4727 26.1172 10.4727C26.0625 10.4883 26.0195 10.5 25.9883 10.5078C25.9648 10.5078 25.9414 10.5117 25.918 10.5195C25.7305 10.543 25.5859 10.5391 25.4844 10.5078C25.4297 10.5156 25.375 10.5156 25.3203 10.5078C25.2734 10.5 25.2383 10.4961 25.2148 10.4961C25.1914 10.4961 25.168 10.4922 25.1445 10.4844C25.0977 10.5 25.0547 10.5078 25.0156 10.5078C24.9844 10.5078 24.9492 10.5078 24.9102 10.5078C24.8789 10.5078 24.8477 10.5078 24.8164 10.5078C24.793 10.5 24.7578 10.4961 24.7109 10.4961C24.6328 10.5117 24.5742 10.5273 24.5352 10.543C24.5039 10.5508 24.4727 10.5547 24.4414 10.5547C24.3477 10.5469 24.2852 10.5469 24.2539 10.5547C24.2305 10.5625 24.207 10.5664 24.1836 10.5664C24.1055 10.582 24.0508 10.5898 24.0195 10.5898C23.9961 10.5898 23.9766 10.5859 23.9609 10.5781L23.7969 10.5898C23.7734 10.5742 23.7539 10.5547 23.7383 10.5312C23.7227 10.5156 23.707 10.5 23.6914 10.4844C23.6836 10.4688 23.6758 10.457 23.668 10.4492C23.5977 10.3711 23.5469 10.3086 23.5156 10.2617C23.4922 10.2148 23.4727 10.1602 23.457 10.0977C23.4336 9.98047 23.4492 9.88672 23.5039 9.81641C23.5898 9.73047 23.6523 9.67969 23.6914 9.66406C23.7305 9.64844 23.7617 9.64062 23.7852 9.64062C23.8242 9.625 23.8672 9.61719 23.9141 9.61719C24 9.58594 24.0938 9.56641 24.1953 9.55859C24.3047 9.55078 24.3945 9.55469 24.4648 9.57031C24.5664 9.5625 24.6289 9.55859 24.6523 9.55859C24.6836 9.55859 24.707 9.55859 24.7227 9.55859C24.7852 9.54297 24.8242 9.53516 24.8398 9.53516C24.8633 9.53516 24.8828 9.53516 24.8984 9.53516C24.8984 9.40234 24.9023 9.32031 24.9102 9.28906C24.9102 9.26562 24.9141 9.24219 24.9219 9.21875C24.9297 9.19531 24.9375 9.17188 24.9453 9.14844C24.9531 9.07031 24.9531 9.01562 24.9453 8.98438C24.9297 8.92188 24.9258 8.86328 24.9336 8.80859C24.9336 8.72266 24.9297 8.66797 24.9219 8.64453C24.9141 8.62109 24.9141 8.59766 24.9219 8.57422C24.9141 8.51172 24.9102 8.47266 24.9102 8.45703C24.9102 8.44141 24.9062 8.42578 24.8984 8.41016C24.8906 8.25391 24.8906 8.125 24.8984 8.02344C24.9141 7.92188 24.9219 7.82812 24.9219 7.74219C24.9219 7.71875 24.9219 7.69531 24.9219 7.67188C24.9219 7.64062 24.918 7.61719 24.9102 7.60156C24.8867 7.51562 24.8789 7.45312 24.8867 7.41406C24.8711 7.3125 24.8672 7.25391 24.875 7.23828C24.8672 7.19922 24.8633 7.16406 24.8633 7.13281C24.8711 7.09375 24.8789 7.05469 24.8867 7.01562C24.8945 6.99219 24.8945 6.97266 24.8867 6.95703C24.8867 6.93359 24.8789 6.90234 24.8633 6.86328C24.8945 6.80859 24.9102 6.76953 24.9102 6.74609C24.918 6.72266 24.9219 6.69922 24.9219 6.67578C24.9141 6.63672 24.9062 6.59375 24.8984 6.54688C24.8984 6.5 24.9023 6.45703 24.9102 6.41797C24.918 6.36328 24.9219 6.33203 24.9219 6.32422C24.9219 6.30859 24.9219 6.29297 24.9219 6.27734C24.9297 6.26953 24.9336 6.25 24.9336 6.21875C24.9336 6.1875 24.9297 6.16016 24.9219 6.13672C24.8984 6.04297 24.8945 5.96875 24.9102 5.91406C24.9023 5.82812 24.9062 5.75781 24.9219 5.70312C24.9297 5.64062 24.9297 5.59766 24.9219 5.57422C24.9219 5.55078 24.9219 5.51953 24.9219 5.48047C24.9453 5.43359 24.957 5.40625 24.957 5.39844C24.9648 5.38281 24.9688 5.36719 24.9688 5.35156C24.9688 5.32031 24.9766 5.27344 24.9922 5.21094C24.9609 5.25 24.9375 5.28516 24.9219 5.31641C24.9062 5.34766 24.8906 5.37891 24.875 5.41016C24.8516 5.47266 24.8242 5.53125 24.793 5.58594C24.7695 5.63281 24.7422 5.67578 24.7109 5.71484C24.6797 5.74609 24.6523 5.77344 24.6289 5.79688C24.6133 5.82031 24.5977 5.83984 24.582 5.85547C24.5508 5.91016 24.5312 5.94531 24.5234 5.96094C24.5234 5.97656 24.5195 5.98828 24.5117 5.99609C24.4805 6.07422 24.457 6.125 24.4414 6.14844C24.4258 6.17188 24.4102 6.1875 24.3945 6.19531V6.32422C24.3633 6.33984 24.3398 6.36328 24.3242 6.39453C24.3086 6.42578 24.3047 6.44922 24.3125 6.46484C24.2734 6.50391 24.2461 6.53125 24.2305 6.54688C24.2227 6.55469 24.2188 6.56641 24.2188 6.58203C24.1641 6.67578 24.1133 6.73828 24.0664 6.76953C24.0117 6.85547 23.9766 6.91016 23.9609 6.93359C23.9531 6.94922 23.9453 6.96094 23.9375 6.96875C23.9219 7.00781 23.9102 7.03125 23.9023 7.03906C23.8945 7.04688 23.8828 7.05469 23.8672 7.0625L23.8438 7.10938C23.8281 7.14062 23.8125 7.15625 23.7969 7.15625C23.7578 7.21875 23.7305 7.26562 23.7148 7.29688C23.707 7.32031 23.6953 7.34766 23.6797 7.37891C23.6484 7.42578 23.6211 7.46094 23.5977 7.48438C23.5586 7.54688 23.5352 7.58984 23.5273 7.61328C23.5195 7.62891 23.5078 7.64453 23.4922 7.66016C23.4609 7.69922 23.4297 7.73828 23.3984 7.77734C23.375 7.81641 23.3555 7.85156 23.3398 7.88281C23.3086 7.91406 23.2852 7.94922 23.2695 7.98828L23.2227 8.09375C23.207 8.10938 23.1953 8.125 23.1875 8.14062C23.1719 8.15625 23.1602 8.17188 23.1523 8.1875C23.1523 8.19531 23.1484 8.20312 23.1406 8.21094C23.125 8.25 23.0938 8.28516 23.0469 8.31641C23.0234 8.35547 23.0078 8.38281 23 8.39844C22.9922 8.40625 22.9844 8.41797 22.9766 8.43359C22.9609 8.48828 22.9336 8.53516 22.8945 8.57422C22.8711 8.66016 22.832 8.73828 22.7773 8.80859C22.7461 8.87109 22.7227 8.91406 22.707 8.9375C22.6836 8.97656 22.6641 9.01172 22.6484 9.04297C22.6328 9.07422 22.6172 9.10156 22.6016 9.125C22.5859 9.15625 22.5703 9.17969 22.5547 9.19531L22.5078 9.26562C22.4922 9.28125 22.4766 9.30078 22.4609 9.32422C22.4531 9.33984 22.4453 9.35547 22.4375 9.37109L22.1797 9.67578C22.1719 9.73047 22.1484 9.78125 22.1094 9.82812L22.0625 9.95703C22.0547 9.97266 22.043 9.99219 22.0273 10.0156L21.9805 10.0859C21.9648 10.1172 21.9531 10.1406 21.9453 10.1562C21.9453 10.1641 21.9375 10.1836 21.9219 10.2148C21.8594 10.2617 21.8125 10.2852 21.7812 10.2852C21.6953 10.3164 21.6523 10.332 21.6523 10.332C21.6055 10.3633 21.5625 10.3828 21.5234 10.3906C21.4688 10.3828 21.4336 10.3789 21.418 10.3789C21.4102 10.3789 21.4023 10.375 21.3945 10.3672C21.3867 10.3672 21.3789 10.3711 21.3711 10.3789C21.3633 10.3789 21.3516 10.3789 21.3359 10.3789H21.3008C21.2852 10.3711 21.2695 10.3594 21.2539 10.3438C21.2227 10.3125 21.207 10.2891 21.207 10.2734C21.1523 10.2422 21.1094 10.2031 21.0781 10.1562C21.0547 10.1172 21.0391 10.0781 21.0312 10.0391C21.0234 10 21.0156 9.96094 21.0078 9.92188C20.9922 9.88281 20.9688 9.84375 20.9375 9.80469C20.9141 9.75781 20.8867 9.71094 20.8555 9.66406C20.8008 9.59375 20.7734 9.55469 20.7734 9.54688C20.7109 9.46094 20.6719 9.39062 20.6562 9.33594C20.6484 9.27344 20.6367 9.22266 20.6211 9.18359L20.5391 9.06641C20.5234 9.04297 20.5117 9.01953 20.5039 8.99609C20.4961 8.98047 20.4883 8.96484 20.4805 8.94922C20.4727 8.92578 20.4688 8.91016 20.4688 8.90234L20.3281 8.69141C20.3047 8.66797 20.2891 8.64062 20.2812 8.60938C20.2812 8.57812 20.2812 8.55469 20.2812 8.53906C20.2578 8.50781 20.2422 8.48438 20.2344 8.46875C20.2266 8.45312 20.2188 8.4375 20.2109 8.42188C20.1797 8.33594 20.1602 8.28125 20.1523 8.25781C20.1445 8.22656 20.1367 8.20312 20.1289 8.1875C20.1055 8.07812 20.0859 8.00781 20.0703 7.97656C20.0547 7.9375 20.0312 7.89844 20 7.85938C19.9922 7.78125 19.9844 7.73828 19.9766 7.73047C19.9141 7.62109 19.8789 7.54297 19.8711 7.49609C19.832 7.32422 19.8008 7.21875 19.7773 7.17969C19.7617 7.13281 19.7461 7.10156 19.7305 7.08594C19.6992 6.96875 19.6836 6.91406 19.6836 6.92188C19.6523 6.88281 19.6328 6.85938 19.625 6.85156C19.6172 6.83594 19.6094 6.82422 19.6016 6.81641C19.5312 6.72266 19.4844 6.65625 19.4609 6.61719C19.4375 6.57812 19.418 6.54688 19.4023 6.52344C19.3945 6.51562 19.3867 6.50391 19.3789 6.48828C19.3789 6.46484 19.375 6.44531 19.3672 6.42969C19.3594 6.40625 19.3516 6.38672 19.3438 6.37109L19.3203 6.30078C19.3125 6.28516 19.3047 6.26562 19.2969 6.24219C19.2891 6.21875 19.2812 6.19531 19.2734 6.17188C19.2578 6.13281 19.2422 6.09375 19.2266 6.05469C19.2188 6.01562 19.207 5.98438 19.1914 5.96094C19.1836 5.92188 19.1797 5.875 19.1797 5.82031C19.1719 5.80469 19.1641 5.78906 19.1562 5.77344C19.1562 5.75 19.1523 5.73047 19.1445 5.71484C19.1367 5.69922 19.1328 5.68359 19.1328 5.66797C19.125 5.64453 19.1172 5.61719 19.1094 5.58594C19.0938 5.52344 19.0859 5.48047 19.0859 5.45703C19.0859 5.52734 19.082 5.57422 19.0742 5.59766C19.0664 5.62109 19.0625 5.64453 19.0625 5.66797V5.72656C19.0625 5.76562 19.0703 5.79297 19.0859 5.80859C19.0469 5.87109 19.0273 5.91797 19.0273 5.94922C19.0352 5.97266 19.0391 5.98828 19.0391 5.99609C19.0391 6.09766 19.0352 6.16406 19.0273 6.19531V6.47656C19.0273 6.54688 19.0352 6.59375 19.0508 6.61719C19.0508 6.64844 19.0469 6.67578 19.0391 6.69922C19.0391 6.71484 19.0391 6.73047 19.0391 6.74609C19.0312 6.76172 19.0273 6.78125 19.0273 6.80469C19.0273 6.82812 19.0234 6.85156 19.0156 6.875C19.0078 6.91406 19.0039 6.95703 19.0039 7.00391C19.0039 7.02734 19 7.04297 18.9922 7.05078C19.0078 7.09766 19.0156 7.14453 19.0156 7.19141C19.0234 7.27734 19.0195 7.33984 19.0039 7.37891C18.9961 7.41016 18.9844 7.43359 18.9688 7.44922C18.9766 7.49609 18.9766 7.53906 18.9688 7.57812C18.9688 7.61719 18.9648 7.64844 18.957 7.67188C18.9727 7.76562 18.9766 7.82812 18.9688 7.85938C18.9688 7.89062 18.9688 7.91406 18.9688 7.92969C18.9766 8.01562 18.9766 8.07422 18.9688 8.10547C18.9688 8.12891 18.9688 8.14844 18.9688 8.16406V8.25781C18.9688 8.28125 18.9727 8.29688 18.9805 8.30469L18.957 8.375C18.9492 8.39062 18.9453 8.41016 18.9453 8.43359C18.9453 8.44922 18.9453 8.46484 18.9453 8.48047C18.9453 8.51172 18.9453 8.54688 18.9453 8.58594C18.9453 8.625 18.9375 8.66406 18.9219 8.70312C18.9297 8.74219 18.9336 8.78125 18.9336 8.82031C18.9336 8.85938 18.9336 8.89844 18.9336 8.9375C18.9336 8.96094 18.9297 8.98828 18.9219 9.01953C18.9219 9.04297 18.9219 9.06641 18.9219 9.08984V9.16016V9.25391V9.37109C18.9219 9.39453 18.9219 9.41797 18.9219 9.44141C18.9297 9.46484 18.9336 9.48828 18.9336 9.51172C18.9414 9.59766 18.9531 9.66016 18.9688 9.69922C19.0156 9.73828 19.0469 9.76172 19.0625 9.76953C19.0781 9.77734 19.0898 9.78125 19.0977 9.78125C19.1133 9.77344 19.125 9.76953 19.1328 9.76953C19.1484 9.76172 19.1758 9.74609 19.2148 9.72266C19.293 9.73828 19.3477 9.74609 19.3789 9.74609C19.4102 9.74609 19.4336 9.74609 19.4492 9.74609C19.5742 9.70703 19.6836 9.70703 19.7773 9.74609C19.793 9.75391 19.8086 9.75781 19.8242 9.75781C19.8398 9.75781 19.8555 9.76172 19.8711 9.76953C19.8945 9.77734 19.9141 9.78516 19.9297 9.79297C19.9375 9.80859 19.9492 9.82031 19.9648 9.82812C19.9805 9.83594 19.9922 9.84375 20 9.85156C20.0078 9.85938 20.0156 9.86328 20.0234 9.86328C20.0469 9.87891 20.0742 9.90234 20.1055 9.93359C20.1367 9.95703 20.1719 10 20.2109 10.0625C20.2031 10.125 20.1992 10.1797 20.1992 10.2266C20.207 10.2734 20.2188 10.3438 20.2344 10.4375C20.1328 10.5156 20.0625 10.5586 20.0234 10.5664L19.9414 10.6719C19.8711 10.7109 19.8086 10.7344 19.7539 10.7422C19.707 10.7422 19.6641 10.7422 19.625 10.7422H19.5078C19.4844 10.75 19.4609 10.7539 19.4375 10.7539C19.4219 10.7617 19.4023 10.7656 19.3789 10.7656H19.3555C19.332 10.7812 19.3086 10.7891 19.2852 10.7891C19.2617 10.7812 19.2227 10.7812 19.168 10.7891C19.1055 10.7969 19.0586 10.8047 19.0273 10.8125C19.0039 10.8125 18.9844 10.8086 18.9688 10.8008C18.9062 10.8008 18.8477 10.8047 18.793 10.8125C18.7383 10.8203 18.6836 10.8359 18.6289 10.8594C18.582 10.8438 18.5508 10.8359 18.5352 10.8359C18.5195 10.8359 18.5039 10.8359 18.4883 10.8359C18.4258 10.8359 18.375 10.8359 18.3359 10.8359C18.3047 10.8281 18.2695 10.8164 18.2305 10.8008C18.1445 10.7852 18.0586 10.7812 17.9727 10.7891C17.8867 10.7969 17.8125 10.8086 17.75 10.8242C17.6719 10.8398 17.5977 10.8594 17.5273 10.8828C17.4648 10.875 17.4141 10.8711 17.375 10.8711C17.2734 10.8711 17.2188 10.8672 17.2109 10.8594C17.1953 10.8594 17.1719 10.8594 17.1406 10.8594C17.1172 10.8594 17.0781 10.8516 17.0234 10.8359C17 10.8125 16.9805 10.7969 16.9648 10.7891C16.9414 10.7734 16.8906 10.7578 16.8125 10.7422C16.7578 10.625 16.7188 10.5234 16.6953 10.4375C16.6719 10.3516 16.6797 10.2695 16.7188 10.1914C16.7344 10.168 16.7539 10.1484 16.7773 10.1328C16.793 10.1172 16.8125 10.1016 16.8359 10.0859C16.8516 10.0703 16.8672 10.0547 16.8828 10.0391C16.8906 10.0234 16.9141 9.99609 16.9531 9.95703C17.0312 9.94141 17.0898 9.92969 17.1289 9.92188C17.168 9.90625 17.2188 9.87891 17.2812 9.83984C17.3359 9.85547 17.3711 9.86328 17.3867 9.86328C17.4023 9.86328 17.418 9.85938 17.4336 9.85156C17.4961 9.83594 17.5586 9.83203 17.6211 9.83984C17.6445 9.82422 17.668 9.81641 17.6914 9.81641C17.7148 9.81641 17.7344 9.8125 17.75 9.80469C17.8047 9.78906 17.8359 9.77344 17.8438 9.75781C17.8516 9.73438 17.8555 9.71484 17.8555 9.69922C17.8633 9.66797 17.8672 9.64453 17.8672 9.62891C17.875 9.61328 17.8789 9.59766 17.8789 9.58203V9.55859C17.8711 9.51953 17.8633 9.47656 17.8555 9.42969C17.8555 9.38281 17.8555 9.33984 17.8555 9.30078V9.16016V9.00781C17.8555 8.96875 17.8555 8.92969 17.8555 8.89062C17.8633 8.85156 17.8672 8.82422 17.8672 8.80859C17.8516 8.75391 17.8555 8.69531 17.8789 8.63281C17.8555 8.5625 17.8594 8.48828 17.8906 8.41016C17.8906 8.37109 17.8867 8.33594 17.8789 8.30469C17.8789 8.27344 17.8789 8.24219 17.8789 8.21094C17.8789 8.13281 17.8906 8.05859 17.9141 7.98828V7.76562C17.9141 7.6875 17.9141 7.64062 17.9141 7.625C17.9219 7.60156 17.9219 7.58203 17.9141 7.56641C17.9141 7.47266 17.9219 7.39453 17.9375 7.33203C17.9375 7.32422 17.9336 7.31641 17.9258 7.30859C17.9258 7.30078 17.9258 7.28906 17.9258 7.27344V7.22656C17.9336 7.20312 17.9375 7.17969 17.9375 7.15625C17.9375 7.10156 17.9414 7.07031 17.9492 7.0625C17.9492 7.01562 17.9609 6.96875 17.9844 6.92188C17.9688 6.85156 17.9688 6.79297 17.9844 6.74609C17.9844 6.73047 17.9844 6.71094 17.9844 6.6875C17.9922 6.66406 17.9922 6.64062 17.9844 6.61719C17.9766 6.58594 17.9688 6.55469 17.9609 6.52344C17.9531 6.49219 17.957 6.45703 17.9727 6.41797C17.9648 6.33203 17.9609 6.26562 17.9609 6.21875C17.9609 6.16406 17.9688 6.11719 17.9844 6.07812C17.9922 6.02344 17.9961 5.99219 17.9961 5.98438C17.9961 5.96875 18 5.95703 18.0078 5.94922C18.0156 5.91016 18.0195 5.87891 18.0195 5.85547C18.0195 5.82422 18.0195 5.79297 18.0195 5.76172C18.0195 5.73047 18.0156 5.69922 18.0078 5.66797C18.0156 5.63672 18.0234 5.60547 18.0312 5.57422C18.0391 5.55078 18.0469 5.52734 18.0547 5.50391C18.0625 5.47266 18.0664 5.44922 18.0664 5.43359C18.0664 5.36328 18.0703 5.31641 18.0781 5.29297C18.0703 5.23047 18.0664 5.1875 18.0664 5.16406C18.0742 5.14062 18.0781 5.12109 18.0781 5.10547C18.0781 5.06641 18.0742 5.03125 18.0664 5C18.0586 4.96875 18.0547 4.92969 18.0547 4.88281C18.0703 4.82031 18.0781 4.77734 18.0781 4.75391C18.0781 4.72266 18.0781 4.69922 18.0781 4.68359C18.0625 4.64453 18.0547 4.61328 18.0547 4.58984C18.0547 4.56641 18.0547 4.54688 18.0547 4.53125C18.0547 4.50781 18.0547 4.48438 18.0547 4.46094C18.0625 4.42969 18.0664 4.40234 18.0664 4.37891C18.0586 4.35547 18.0508 4.33594 18.043 4.32031C18.043 4.29688 18.043 4.27344 18.043 4.25L18.0547 4.10938C18.0391 4.03125 18.0312 3.97656 18.0312 3.94531C18.0312 3.91406 18.0312 3.89063 18.0312 3.875C17.9922 3.89063 17.9492 3.90625 17.9023 3.92188C17.8555 3.92969 17.8086 3.92578 17.7617 3.91016C17.7227 3.91797 17.6875 3.92578 17.6562 3.93359C17.625 3.93359 17.5938 3.92969 17.5625 3.92188C17.4766 3.95312 17.3984 3.97266 17.3281 3.98047C17.2656 3.98828 17.207 3.97266 17.1523 3.93359C17.0977 3.91797 17.0586 3.91016 17.0352 3.91016C17.0117 3.90234 16.9805 3.89844 16.9414 3.89844C16.8398 3.79688 16.7812 3.72656 16.7656 3.6875C16.7188 3.625 16.6914 3.58594 16.6836 3.57031C16.6602 3.54688 16.6406 3.50781 16.625 3.45312C16.6016 3.39844 16.6016 3.34766 16.625 3.30078C16.6406 3.25391 16.6562 3.21875 16.6719 3.19531C16.6875 3.17188 16.707 3.14844 16.7305 3.125C16.7461 3.10156 16.7695 3.07031 16.8008 3.03125C16.9258 2.99219 17.0156 2.97656 17.0703 2.98438C17.1328 2.97656 17.1797 2.97266 17.2109 2.97266C17.25 2.97266 17.2773 2.97266 17.293 2.97266C17.332 2.96484 17.3594 2.96094 17.375 2.96094C17.3906 2.95313 17.4062 2.94922 17.4219 2.94922C17.4453 2.94141 17.4922 2.9375 17.5625 2.9375C17.5938 2.9375 17.6289 2.94141 17.668 2.94922C17.7148 2.94922 17.7578 2.94922 17.7969 2.94922C17.9062 2.91797 17.9766 2.90234 18.0078 2.90234C18.0469 2.89453 18.0742 2.89062 18.0898 2.89062C18.1914 2.875 18.2969 2.86719 18.4062 2.86719C18.5156 2.85938 18.6016 2.87109 18.6641 2.90234C18.6953 2.91797 18.7227 2.92969 18.7461 2.9375C18.7773 2.9375 18.8242 2.9375 18.8867 2.9375C18.9492 3 19 3.04688 19.0391 3.07812C19.0781 3.10937 19.1367 3.15234 19.2148 3.20703C19.207 3.26172 19.2031 3.29687 19.2031 3.3125C19.2109 3.32813 19.2188 3.34375 19.2266 3.35938C19.2422 3.38281 19.2539 3.41016 19.2617 3.44141C19.2773 3.46484 19.2891 3.49609 19.2969 3.53516C19.3672 3.61328 19.4062 3.69531 19.4141 3.78125L19.4961 3.94531C19.5352 4.03125 19.5586 4.08984 19.5664 4.12109C19.582 4.14453 19.5898 4.16016 19.5898 4.16797L19.6836 4.33203C19.7148 4.39453 19.7305 4.44141 19.7305 4.47266C19.7539 4.53516 19.7773 4.58203 19.8008 4.61328C19.8242 4.64453 19.8438 4.67188 19.8594 4.69531C19.875 4.71875 19.8984 4.74609 19.9297 4.77734C19.9219 4.83984 19.9219 4.88281 19.9297 4.90625C19.9453 4.92969 19.9727 4.96094 20.0117 5C20.0117 5.07812 20.0195 5.14062 20.0352 5.1875C20.0508 5.23438 20.0859 5.30078 20.1406 5.38672C20.125 5.42578 20.1211 5.46875 20.1289 5.51562C20.1445 5.5625 20.1562 5.59375 20.1641 5.60938C20.1953 5.67969 20.2148 5.74219 20.2227 5.79688C20.2305 5.82031 20.2422 5.83984 20.2578 5.85547C20.2734 5.87109 20.2852 5.89062 20.293 5.91406C20.332 5.92969 20.3555 5.94922 20.3633 5.97266C20.3711 5.98828 20.375 6 20.375 6.00781L20.4453 6.16016C20.4609 6.17578 20.4727 6.1875 20.4805 6.19531C20.4961 6.20312 20.5078 6.21484 20.5156 6.23047C20.5234 6.24609 20.5234 6.25781 20.5156 6.26562L20.5391 6.3125C20.5547 6.34375 20.5625 6.37109 20.5625 6.39453C20.5938 6.44141 20.6133 6.47656 20.6211 6.5C20.6367 6.52344 20.6523 6.55078 20.668 6.58203C20.6914 6.64453 20.7031 6.68359 20.7031 6.69922C20.7109 6.70703 20.7148 6.71484 20.7148 6.72266C20.7383 6.80859 20.75 6.87891 20.75 6.93359C20.7656 6.98047 20.7852 7.02344 20.8086 7.0625C20.832 7.09375 20.8516 7.125 20.8672 7.15625C20.8906 7.1875 20.9102 7.21484 20.9258 7.23828L20.9492 7.37891C20.9648 7.46484 20.9805 7.51562 20.9961 7.53125C21.0586 7.73438 21.1094 7.91016 21.1484 8.05859C21.1719 8.09766 21.1875 8.12891 21.1953 8.15234C21.2109 8.16797 21.2227 8.18359 21.2305 8.19922C21.3086 8.26953 21.3516 8.32812 21.3594 8.375C21.375 8.41406 21.3828 8.44141 21.3828 8.45703C21.3828 8.48828 21.4062 8.53516 21.4531 8.59766C21.4766 8.62891 21.4961 8.66016 21.5117 8.69141C21.5195 8.71484 21.5312 8.73828 21.5469 8.76172C21.5781 8.80859 21.5938 8.83984 21.5938 8.85547C21.6094 8.83984 21.625 8.82031 21.6406 8.79688C21.6641 8.77344 21.6875 8.75391 21.7109 8.73828C21.75 8.67578 21.7734 8.63281 21.7812 8.60938C21.7969 8.58594 21.8125 8.5625 21.8281 8.53906C21.8672 8.46875 21.8906 8.42578 21.8984 8.41016C21.9062 8.39453 21.9141 8.37891 21.9219 8.36328C21.9375 8.34766 21.9492 8.33203 21.957 8.31641C21.9727 8.29297 21.9883 8.27344 22.0039 8.25781C22.0273 8.14844 22.0742 8.05859 22.1445 7.98828L22.1914 7.87109C22.207 7.83984 22.2266 7.80469 22.25 7.76562C22.2578 7.75 22.2695 7.73047 22.2852 7.70703C22.3164 7.66016 22.3398 7.62891 22.3555 7.61328C22.3789 7.51172 22.4258 7.42578 22.4961 7.35547C22.5039 7.33203 22.5117 7.30469 22.5195 7.27344C22.5352 7.24219 22.5625 7.21875 22.6016 7.20312C22.6406 7.14844 22.6602 7.11719 22.6602 7.10938C22.668 7.09375 22.6719 7.08203 22.6719 7.07422C22.7109 7.01172 22.7344 6.97656 22.7422 6.96875C22.7578 6.96094 22.7656 6.95312 22.7656 6.94531C22.8047 6.88281 22.8281 6.84375 22.8359 6.82812C22.8516 6.8125 22.8633 6.80469 22.8711 6.80469C22.9023 6.70312 22.9414 6.63281 22.9883 6.59375L23.1641 6.33594C23.1875 6.24219 23.2266 6.17578 23.2812 6.13672C23.3047 6.09766 23.3203 6.06641 23.3281 6.04297C23.3438 6.01172 23.3594 5.98828 23.375 5.97266C23.4062 5.89453 23.4258 5.85156 23.4336 5.84375C23.4414 5.82812 23.4453 5.81641 23.4453 5.80859C23.4609 5.76953 23.4727 5.74219 23.4805 5.72656C23.4961 5.71094 23.5117 5.69531 23.5273 5.67969C23.5664 5.63281 23.5977 5.57812 23.6211 5.51562C23.6523 5.44531 23.6836 5.36719 23.7148 5.28125C23.7773 5.22656 23.8164 5.1875 23.832 5.16406C23.8477 5.14062 23.8594 5.12109 23.8672 5.10547L24.0664 4.73047C24.1289 4.66797 24.1641 4.625 24.1719 4.60156C24.1875 4.57812 24.1953 4.54688 24.1953 4.50781L24.3477 4.30859C24.3867 4.26953 24.4102 4.24219 24.418 4.22656C24.4336 4.20312 24.4492 4.18359 24.4648 4.16797C24.4883 4.11328 24.5 4.07812 24.5 4.0625C24.5078 4.04688 24.5117 4.02734 24.5117 4.00391L24.6758 3.83984C24.707 3.79297 24.7305 3.75 24.7461 3.71094C24.7695 3.67187 24.7891 3.64062 24.8047 3.61719C24.8672 3.52344 24.9062 3.46484 24.9219 3.44141C24.9375 3.41016 24.9531 3.38672 24.9688 3.37109C25.0312 3.24609 25.0742 3.14844 25.0977 3.07812C25.1133 3.03906 25.125 3 25.1328 2.96094L25.3203 2.77344C25.3594 2.77344 25.3945 2.76953 25.4258 2.76172C25.5039 2.74609 25.5586 2.73828 25.5898 2.73828C25.6758 2.75391 25.7266 2.76172 25.7422 2.76172C25.7656 2.75391 25.7969 2.74219 25.8359 2.72656C25.9453 2.71094 26.0195 2.70312 26.0586 2.70312C26.0977 2.70312 26.1367 2.69922 26.1758 2.69141C26.1992 2.69141 26.2266 2.69141 26.2578 2.69141C26.2969 2.68359 26.3281 2.68359 26.3516 2.69141C26.3906 2.69141 26.4219 2.6875 26.4453 2.67969C26.4766 2.67188 26.5156 2.66797 26.5625 2.66797C26.625 2.68359 26.6797 2.69141 26.7266 2.69141C26.7812 2.68359 26.832 2.67969 26.8789 2.67969C26.9336 2.67969 26.9805 2.67969 27.0195 2.67969C27.0664 2.67188 27.1016 2.66797 27.125 2.66797C27.1797 2.66797 27.2188 2.66797 27.2422 2.66797C27.2734 2.66016 27.3047 2.66406 27.3359 2.67969C27.375 2.69531 27.4023 2.71094 27.418 2.72656C27.4414 2.74219 27.4609 2.75781 27.4766 2.77344C27.5547 2.8125 27.6094 2.84766 27.6406 2.87891C27.6797 2.91016 27.7109 2.94531 27.7344 2.98438C27.7422 3 27.75 3.02344 27.7578 3.05469C27.7656 3.07812 27.7773 3.10156 27.793 3.125C27.8086 3.15625 27.8203 3.1875 27.8281 3.21875Z" fill="#2F0746"/>
<circle cx="13.5" cy="6.5" r="2.5" fill="#413449"/>
</svg>
